<svg width="410" height="752" viewBox="0 0 410 752" fill="none" xmlns="http://www.w3.org/2000/svg">
<path d="M486.5 0.5L251 42.5V338L486.5 327.5V0.5Z" fill="#590C18" stroke="#590C18"/>
<path d="M76.0001 309V119H349L353.5 309H76.0001Z" fill="#FAD1CF" stroke="#FAD1CF"/>
<path d="M113.046 192.189L113.545 191.586L114.062 191L117.98 191.017C120.142 191.017 122.434 191.086 123.099 191.155C123.764 191.241 125.003 191.431 125.871 191.586C126.795 191.775 128.163 192.206 129.198 192.654C130.159 193.085 131.452 193.67 132.062 193.963C132.672 194.256 133.411 194.669 133.707 194.859C133.984 195.066 134.76 195.686 135.426 196.254C136.073 196.823 136.812 197.564 137.071 197.891C137.311 198.218 137.717 198.77 137.976 199.097C138.235 199.424 138.641 199.993 138.9 200.355C139.344 200.975 139.381 200.975 139.732 200.699C139.935 200.527 140.138 200.234 140.175 200.045C140.212 199.855 140.711 197.994 141.284 195.91C142.06 193.085 142.43 192.016 142.744 191.724C143.132 191.345 143.206 191.327 144.352 191.517C145.017 191.62 146.163 191.896 146.884 192.12C147.623 192.361 148.436 192.55 148.695 192.55C148.954 192.55 149.471 192.671 149.841 192.826C150.229 192.964 151.411 193.291 152.483 193.515C153.555 193.756 155.218 194.135 156.179 194.342C157.14 194.549 158.157 194.825 158.434 194.928C158.73 195.048 159.099 195.135 159.266 195.135C159.451 195.135 160.356 195.324 161.262 195.548C162.167 195.789 163.627 196.151 164.496 196.358C165.364 196.565 166.566 196.823 167.175 196.961C167.785 197.081 168.617 197.305 169.024 197.443C169.43 197.581 170.336 197.788 171.056 197.891C171.777 197.994 172.405 198.115 172.479 198.167C172.572 198.201 172.775 198.46 172.941 198.735C173.256 199.235 173.256 199.321 172.849 201.061C172.627 202.06 172.369 203.025 172.276 203.197C172.184 203.352 172.054 203.921 171.98 204.438C171.906 204.954 171.722 205.661 171.574 205.988C171.408 206.315 171.13 207.211 170.946 207.969C170.761 208.727 170.465 209.744 170.28 210.243C170.095 210.743 169.837 211.242 169.707 211.363C169.523 211.553 169.319 211.553 168.598 211.363C168.118 211.225 166.935 210.95 165.974 210.743C165.013 210.519 164.052 210.26 163.849 210.157C163.646 210.054 162.906 209.881 162.186 209.778C161.465 209.658 160.596 209.451 160.245 209.313C159.894 209.175 158.915 208.951 158.065 208.813C157.233 208.676 156.272 208.452 155.939 208.297C155.625 208.141 154.978 207.969 154.516 207.918C153.851 207.849 153.611 207.9 153.297 208.159C153.056 208.365 152.816 208.986 152.594 209.864C152.428 210.622 152.169 211.587 152.021 212.018C151.874 212.448 151.652 213.379 151.504 214.085C151.356 214.791 151.116 215.618 150.968 215.894C150.802 216.187 150.617 216.841 150.561 217.358C150.487 217.875 150.303 218.495 150.173 218.736C150.044 218.978 149.767 219.874 149.563 220.718C149.36 221.562 149.046 222.733 148.898 223.302C148.732 223.87 148.436 224.835 148.251 225.455C148.048 226.075 147.845 226.971 147.771 227.436C147.697 227.919 147.494 228.694 147.309 229.159C147.105 229.642 146.865 230.52 146.754 231.14C146.625 231.761 146.422 232.536 146.274 232.863C146.126 233.19 145.904 233.966 145.793 234.586C145.682 235.206 145.479 235.912 145.35 236.188C145.202 236.446 144.925 236.757 144.74 236.877C144.463 237.032 144.13 237.049 143.206 236.877C142.559 236.757 141.506 236.515 140.841 236.326C140.175 236.154 139.103 235.861 138.438 235.706C137.773 235.551 136.812 235.344 136.313 235.241C135.795 235.137 134.927 234.948 134.372 234.81C133.818 234.672 132.986 234.483 132.524 234.362C132.062 234.241 131.582 234.104 131.452 234.035C131.342 233.948 131.231 233.569 131.231 233.173C131.231 232.76 131.434 231.847 131.674 231.14C131.914 230.434 132.21 229.383 132.303 228.815C132.413 228.246 132.543 227.591 132.617 227.35C132.728 226.937 132.691 226.92 132.007 227.006C131.6 227.057 131.12 227.212 130.935 227.368C130.75 227.523 130.288 227.712 129.937 227.781C129.586 227.85 128.976 228.057 128.588 228.229C128.218 228.418 127.017 228.763 125.927 229.004C124.799 229.245 123.081 229.487 121.99 229.538C120.918 229.59 119.939 229.728 119.81 229.831C119.68 229.934 119.569 230.348 119.588 230.761C119.588 231.158 119.495 231.64 119.403 231.829C119.218 232.157 119.033 232.174 115.023 232.174C111.66 232.174 110.736 232.122 110.44 231.933C110.089 231.692 110.07 231.45 110.015 225.421C109.978 221.975 110.015 218.995 110.07 218.788C110.126 218.564 110.348 218.289 110.569 218.185C110.883 218.013 112.768 217.944 117.37 217.875L117.485 217.874C123.6 217.789 123.768 217.787 124.337 217.41C124.67 217.186 125.058 217.014 125.169 217.014C125.298 217.014 125.705 216.859 126.056 216.652C126.407 216.462 127.054 215.928 127.498 215.498C127.923 215.05 128.274 214.619 128.274 214.516C128.274 214.412 128.477 214.068 128.736 213.74C128.994 213.379 129.309 212.552 129.493 211.673C129.789 210.278 129.789 210.14 129.475 208.744C129.309 207.935 128.939 206.936 128.662 206.522C128.403 206.109 127.886 205.488 127.535 205.144C127.202 204.799 126.537 204.265 126.056 203.955C125.594 203.662 125.114 203.404 124.984 203.404C124.873 203.404 124.263 203.214 123.654 202.973C122.582 202.56 122.415 202.543 118.35 202.543C114.45 202.56 114.099 202.525 113.212 201.888L113.046 192.189Z" fill="#892A38"/>
<path d="M178.011 213.75V195.43H185.246C189.289 195.43 192.645 196.647 192.645 200.994C192.645 205.289 189.537 206.608 185.438 206.608H182.302V213.75H178.011ZM182.302 198.846V203.193H185.163C186.676 203.193 188.189 202.701 188.189 200.994C188.189 199.105 186.153 198.846 184.503 198.846H182.302Z" fill="black"/>
<path d="M198.089 213.75V195.43H205.626C209.615 195.43 212.971 196.724 212.971 200.994C212.971 203.555 211.513 205.548 208.762 206.013L213.713 213.75H208.569L204.498 206.427H202.38V213.75H198.089ZM202.38 198.846V203.012H204.911C206.479 203.012 208.514 202.96 208.514 200.968C208.514 199.131 206.754 198.846 205.186 198.846H202.38Z" fill="black"/>
<path d="M218.622 213.75V195.43H222.913V213.75H218.622Z" fill="black"/>
<path d="M229.567 213.75V195.43H235.399L243.679 208.161H243.734V195.43H248.025V213.75H242.413L233.913 200.709H233.858V213.75H229.567Z" fill="black"/>
<path d="M258.517 213.75V199.001H252.961V195.43H268.365V199.001H262.809V213.75H258.517Z" fill="black"/>
<path d="M273.24 213.75V195.43H277.532V213.75H273.24Z" fill="black"/>
<path d="M284.186 213.75V195.43H290.017L298.297 208.161H298.352V195.43H302.644V213.75H297.032L288.532 200.709H288.477V213.75H284.186Z" fill="black"/>
<path d="M327 202.882V212.456C324.469 213.698 321.691 214.216 318.83 214.216C312.751 214.216 308.322 210.464 308.322 204.59C308.322 198.717 312.751 194.965 318.83 194.965C321.911 194.965 324.634 195.612 326.587 197.319L323.561 200.424C322.406 199.286 321.003 198.691 318.83 198.691C315.172 198.691 312.778 201.175 312.778 204.59C312.778 208.006 315.172 210.49 318.83 210.49C320.701 210.49 322.076 209.998 322.874 209.584V206.608H319.38V202.882H327Z" fill="black"/>
<path d="M183.568 234.891V220.143H178.011V216.572H193.416V220.143H187.859V234.891H183.568Z" fill="black"/>
<path d="M193.812 234.891L202.23 216.572H205.778L214.251 234.891H209.409L207.731 231.01H200.167L198.544 234.891H193.812ZM206.273 227.595L203.88 221.902L201.515 227.595H206.273Z" fill="black"/>
<path d="M219.125 234.891V216.572H223.417V231.165H231.367V234.891H219.125Z" fill="black"/>
<path d="M236.651 234.891V216.572H240.942V224.179L248.507 216.572H254.119L245.454 225.085L254.861 234.891H248.865L240.942 226.197V234.891H236.651Z" fill="black"/>
<path d="M271.66 218.021L268.717 221.048C268.029 220.22 266.654 219.832 265.608 219.832C264.398 219.832 262.72 220.35 262.72 221.721C262.72 225.059 271.688 222.911 271.688 229.328C271.688 233.417 268.194 235.357 264.178 235.357C261.675 235.357 259.474 234.659 257.631 233.054L260.684 229.898C261.565 230.984 262.995 231.631 264.425 231.631C265.828 231.631 267.396 231.01 267.396 229.716C267.396 226.353 258.264 228.164 258.264 222.057C258.264 218.15 261.867 216.106 265.691 216.106C267.891 216.106 270.01 216.65 271.66 218.021Z" fill="black"/>
<path d="M74.9999 309L77.9999 332.5L144 309H74.9999Z" fill="#300707" stroke="#300707"/>
<path d="M162.5 150C158.5 150 158.5 145.667 159 143.5C159 118.3 164.667 101.667 167.5 96.5C174.167 87 193.2 68 216 68C244.5 68 260.5 96 264 103.5C266 109.5 269.5 134.667 271 146.5C270.833 148.833 269.5 153.5 265.5 153.5C261.5 153.5 260.5 146.833 260.5 143.5C260.5 138.167 259.6 122.3 256 101.5C243.5 66.5 215 70.5 209.5 70.5C204 70.5 191.5 75.5 184 82.5C178 88.1 174.833 100.833 174 106.5C172.167 117.5 168.5 140.3 168.5 143.5C168.5 147.5 167.5 150 162.5 150Z" fill="url(#paint0_linear_18_5848)"/>
<path d="M7.50006 504.5V361.5L19.0001 366.5V499.5L7.50006 504.5Z" fill="#430103" stroke="#430103"/>
<path d="M19.0002 499.5L222 436.15V287.5L19.0002 365.317V499.5Z" fill="#4E0001" stroke="#4E0001"/>
<path d="M223 436.5V278L319 297.5V442.5L223 436.5Z" fill="#B72828" stroke="#B72828"/>
<path d="M319 442V297.5L435 316V444.5L319 442Z" fill="#F8CCC4"/>
<path d="M222.5 436.5L7.00024 504.5L92.5002 518.5L222.5 436.5Z" fill="#920301" stroke="#920301"/>
<path d="M119.5 604.5H671V444L119.5 435V604.5Z" fill="#621521" stroke="#621521"/>
<path d="M109.5 621.5L119.5 604.5H216.5L109.5 621.5Z" fill="#2E0306" stroke="#2E0306"/>
<path d="M109.5 621.5L54.0001 631V532.5L119.5 434V604.5L109.5 621.5Z" fill="#44010C" stroke="#44010C"/>
<path d="M328 391L339 595C375 534.5 445 541 476 590C471.833 542.5 462.6 436.2 459 391C427.8 418.2 358.666 402.333 328 391Z" fill="#FDDDDC" stroke="#FDDDDC"/>
<path d="M339 594.5C385 576.5 425.5 574 476 589.5C435.5 529 361 546 339 594.5Z" fill="#473434"/>
<g style="mix-blend-mode:plus-darker">
<path d="M465.5 462.5C406.7 442.1 351.5 456.014 331.5 465.68C331.5 465.014 331.2 459.7 330 444.5C382.8 422.1 441 432.347 463.5 440.18C463.667 440.68 464.7 446.1 465.5 462.5Z" fill="url(#paint1_linear_18_5848)"/>
</g>
<g style="mix-blend-mode:plus-darker">
<path d="M411 437C410.2 423.4 409.667 410.333 409.5 405.5C417.5 405.5 421 404.5 427 402.5C429 404.5 430 410.667 430.5 413.5C433.5 450.833 439.7 529.2 440.5 544C441.3 558.8 440.882 559 437.5 570.5C434.118 582 433.5 581 433.5 581C433.5 581 425 579.5 414 580C417.5 567.5 417.823 569.819 419 563C420.164 556.254 420.167 549.167 420 545.5C417.333 515 411.8 450.6 411 437Z" fill="url(#paint2_linear_18_5848)"/>
</g>
<path d="M0 752V638L419.5 571V752H0Z" fill="#913733"/>
<path d="M208.5 603.5L0 638V751.5H49L208.5 603.5Z" fill="black" fill-opacity="0.3"/>
<path d="M222.5 278L8 361L19 365.5L222.5 288V278Z" fill="#390100" stroke="#390100"/>
<defs>
<linearGradient id="paint0_linear_18_5848" x1="53" y1="166" x2="258" y2="86" gradientUnits="userSpaceOnUse">
<stop stop-color="#FF5B66"/>
<stop offset="1" stop-color="#A10928"/>
</linearGradient>
<linearGradient id="paint1_linear_18_5848" x1="363" y1="465.68" x2="468.5" y2="465.68" gradientUnits="userSpaceOnUse">
<stop stop-color="#FF5B66"/>
<stop offset="1" stop-color="#A10928"/>
</linearGradient>
<linearGradient id="paint2_linear_18_5848" x1="415.971" y1="600" x2="441.456" y2="600" gradientUnits="userSpaceOnUse">
<stop stop-color="#FF5B66"/>
<stop offset="1" stop-color="#A10928"/>
</linearGradient>
</defs>
</svg>
