<svg width="55" height="40" viewBox="0 0 55 40" fill="none" xmlns="http://www.w3.org/2000/svg">
            <path d="M2.60436 1.03366L3.03104 0.509339L3.47351 0L6.82368 0.0149805C8.6726 0.0149805 10.6321 0.0749027 11.201 0.134825C11.7699 0.209728 12.8287 0.374514 13.5714 0.509339C14.3616 0.674125 15.531 1.04864 16.4159 1.43813C17.2377 1.81265 18.3438 2.32198 18.8653 2.57665C19.3868 2.83132 20.0189 3.19086 20.2718 3.35564C20.5088 3.53541 21.1725 4.07471 21.7414 4.56907C22.2945 5.06342 22.9266 5.70759 23.1479 5.99222C23.3533 6.27685 23.701 6.75623 23.9222 7.04086C24.1434 7.32549 24.4911 7.81984 24.7123 8.13444C25.0916 8.67374 25.1232 8.67374 25.4234 8.43405C25.5973 8.28424 25.7711 8.02957 25.8027 7.86479C25.8343 7.7 26.261 6.0821 26.7509 4.26946C27.4146 1.81265 27.7306 0.883852 27.9993 0.629183C28.3311 0.299611 28.3944 0.28463 29.3741 0.449416C29.943 0.5393 30.9228 0.778988 31.5391 0.973735C32.1712 1.18346 32.8665 1.34825 33.0877 1.34825C33.309 1.34825 33.7515 1.45311 34.0675 1.58794C34.3994 1.70778 35.4107 1.99241 36.3273 2.18716C37.2439 2.39689 38.6661 2.72646 39.4878 2.90623C40.3096 3.08599 41.1787 3.32568 41.4158 3.41556C41.6686 3.52043 41.9847 3.59533 42.1269 3.59533C42.2849 3.59533 43.0592 3.76012 43.8336 3.95486C44.6079 4.16459 45.8563 4.47918 46.599 4.65895C47.3418 4.83872 48.3689 5.06342 48.8904 5.18327C49.4119 5.28813 50.123 5.48288 50.4707 5.60272C50.8184 5.72257 51.5927 5.90234 52.209 5.99222C52.8253 6.0821 53.3626 6.18697 53.4258 6.23191C53.5048 6.26187 53.6787 6.48658 53.8209 6.72626C54.0895 7.1607 54.0895 7.2356 53.7419 8.74864C53.5522 9.61751 53.331 10.4564 53.252 10.6062C53.173 10.7411 53.0623 11.2354 52.9991 11.6848C52.9359 12.1342 52.7779 12.7484 52.6515 13.0331C52.5093 13.3177 52.2722 14.0967 52.1142 14.7558C51.9562 15.415 51.7033 16.2988 51.5453 16.7333C51.3873 17.1677 51.166 17.6021 51.0554 17.707C50.8974 17.8718 50.7236 17.8718 50.1072 17.707C49.6964 17.5872 48.685 17.3475 47.8633 17.1677C47.0415 16.973 46.2198 16.7482 46.0459 16.6584C45.8721 16.5685 45.24 16.4187 44.6237 16.3288C44.0074 16.2239 43.2647 16.0442 42.9644 15.9243C42.6642 15.8045 41.8266 15.6097 41.0997 15.4899C40.3886 15.37 39.5669 15.1753 39.2824 15.0405C39.0138 14.9056 38.4607 14.7558 38.0656 14.7109C37.4967 14.651 37.2913 14.6959 37.0226 14.9206C36.8172 15.1004 36.6117 15.6397 36.4221 16.4037C36.2799 17.0628 36.0587 17.9018 35.9322 18.2763C35.8058 18.6508 35.6162 19.4597 35.4898 20.0739C35.3633 20.6881 35.1579 21.4072 35.0315 21.6469C34.8893 21.9016 34.7312 22.4708 34.6838 22.9202C34.6206 23.3697 34.4626 23.909 34.352 24.1187C34.2413 24.3284 34.0043 25.1074 33.8305 25.8414C33.6567 26.5755 33.388 27.5942 33.2616 28.0885C33.1194 28.5829 32.8665 29.4218 32.7085 29.9611C32.5347 30.5004 32.3608 31.2794 32.2976 31.6839C32.2344 32.1033 32.0606 32.7774 31.9025 33.1819C31.7287 33.6014 31.5233 34.3654 31.4285 34.9047C31.3179 35.444 31.144 36.1181 31.0176 36.4027C30.8912 36.6874 30.7015 37.3615 30.6067 37.9008C30.5119 38.4401 30.3381 39.0543 30.2275 39.294C30.101 39.5187 29.864 39.7883 29.706 39.8932C29.4689 40.028 29.1845 40.043 28.3944 39.8932C27.8413 39.7883 26.9405 39.5786 26.3716 39.4138C25.8027 39.264 24.8862 39.0093 24.3173 38.8745C23.7484 38.7397 22.9266 38.5599 22.4999 38.47C22.0575 38.3802 21.3147 38.2154 20.8407 38.0955C20.3666 37.9757 19.6555 37.8109 19.2604 37.706C18.8653 37.6012 18.4545 37.4813 18.3438 37.4214C18.249 37.3465 18.1542 37.0169 18.1542 36.6724C18.1542 36.3128 18.328 35.5189 18.5335 34.9047C18.7389 34.2905 18.9918 33.3767 19.0708 32.8823C19.1656 32.3879 19.2762 31.8187 19.3394 31.609C19.4342 31.2494 19.4026 31.2344 18.8179 31.3093C18.4703 31.3543 18.0594 31.4891 17.9014 31.6239C17.7433 31.7588 17.3483 31.9235 17.048 31.9835C16.7478 32.0434 16.2263 32.2232 15.8944 32.373C15.5784 32.5378 14.5512 32.8374 13.6188 33.0471C12.6549 33.2568 11.1852 33.4665 10.2529 33.5115C9.33631 33.5564 8.49877 33.6763 8.38815 33.7662C8.27753 33.856 8.18271 34.2156 8.19851 34.5751C8.19851 34.9197 8.1195 35.3391 8.04049 35.5039C7.88246 35.7885 7.72443 35.8035 4.29525 35.8035C1.41916 35.8035 0.629027 35.7586 0.376184 35.5938C0.0759329 35.3841 0.0601302 35.1743 0.0127221 29.9311C-0.0188832 26.935 0.0127221 24.3434 0.0601302 24.1636C0.107538 23.9689 0.297171 23.7292 0.486803 23.6393C0.755448 23.4895 2.36732 23.4296 6.30219 23.3697L6.40002 23.3683C11.6295 23.2947 11.7729 23.2927 12.2598 22.9652C12.5443 22.7704 12.8761 22.6206 12.9709 22.6206C13.0815 22.6206 13.4292 22.4858 13.7295 22.306C14.0297 22.1412 14.5828 21.6768 14.9621 21.3023C15.3255 20.9128 15.6258 20.5383 15.6258 20.4484C15.6258 20.3586 15.7996 20.059 16.0208 19.7743C16.2421 19.4597 16.5107 18.7407 16.6688 17.9767C16.9216 16.7632 16.9216 16.6434 16.653 15.43C16.5107 14.7259 16.1947 13.857 15.9576 13.4975C15.7364 13.1379 15.2939 12.5986 14.9937 12.299C14.7092 11.9994 14.1403 11.535 13.7295 11.2654C13.3344 11.0107 12.9235 10.786 12.8129 10.786C12.7181 10.786 12.1966 10.6212 11.6751 10.4115C10.7586 10.0519 10.6163 10.037 7.13974 10.037C3.80537 10.0519 3.50512 10.022 2.74659 9.46771L2.60436 1.03366Z" fill="#892A38" />
          </svg>