<?xml version="1.0" encoding="UTF-8"?>
<svg width="1200pt" height="1200pt" version="1.1" viewBox="0 0 1200 1200" xmlns="http://www.w3.org/2000/svg">
 <g>
  <path d="m627.27 967.27c0 15.062-12.211 27.273-27.273 27.273s-27.273-12.211-27.273-27.273 12.211-27.273 27.273-27.273 27.273 12.211 27.273 27.273"/>
  <path d="m1049.1 832.73h-898.18c-72.727 0-132.73 60-132.73 132.73v3.6367c0 72.727 60 132.73 132.73 132.73h896.36c72.727 0 132.73-60 132.73-132.73v-3.6367c1.8164-72.727-58.184-132.73-130.91-132.73zm-883.64 198.18c-34.547 0-63.637-29.09-63.637-63.637 0-34.547 29.09-63.637 63.637-63.637s63.637 29.09 63.637 63.637c0 34.543-29.09 63.637-63.637 63.637zm216.36 0c-34.547 0-63.637-29.09-63.637-63.637 0-34.547 29.09-63.637 63.637-63.637s63.637 29.09 63.637 63.637c0 34.543-27.27 63.637-63.637 63.637zm218.18 0c-34.547 0-63.637-29.09-63.637-63.637 0-34.547 29.09-63.637 63.637-63.637s63.637 29.09 63.637 63.637c0 34.543-29.09 63.637-63.637 63.637zm218.18 0c-34.547 0-63.637-29.09-63.637-63.637 0-34.547 29.09-63.637 63.637-63.637s63.637 29.09 63.637 63.637c-0.003906 34.543-29.094 63.637-63.637 63.637zm216.36 0c-34.547 0-63.637-29.09-63.637-63.637 0-34.547 29.09-63.637 63.637-63.637s63.637 29.09 63.637 63.637c0 34.543-29.094 63.637-63.637 63.637z"/>
  <path d="m409.09 967.27c0 15.062-12.211 27.273-27.273 27.273-15.059 0-27.27-12.211-27.27-27.273s12.211-27.273 27.27-27.273c15.062 0 27.273 12.211 27.273 27.273"/>
  <path d="m845.45 967.27c0 15.062-12.211 27.273-27.27 27.273-15.062 0-27.273-12.211-27.273-27.273s12.211-27.273 27.273-27.273c15.059 0 27.27 12.211 27.27 27.273"/>
  <path d="m1061.8 967.27c0 15.062-12.207 27.273-27.27 27.273s-27.273-12.211-27.273-27.273 12.211-27.273 27.273-27.273 27.27 12.211 27.27 27.273"/>
  <path d="m192.73 967.27c0 15.062-12.211 27.273-27.273 27.273s-27.27-12.211-27.27-27.273 12.207-27.273 27.27-27.273 27.273 12.211 27.273 27.273"/>
  <path d="m347.27 500h61.816v109.09h-61.816z"/>
  <path d="m610.91 518.18v278.18l-460-0.003907h-3.6367v-278.18c0-10.91 7.2734-18.184 18.184-18.184h145.45v127.27c0 9.0898 9.0898 18.184 18.184 18.184h98.184c9.0898 0 18.184-9.0898 18.184-18.184v-127.27h145.45c12.723 0 19.996 7.2734 19.996 18.184z"/>
  <path d="m347.27 96.363h61.816v90.91h-61.816z"/>
  <path d="m592.73 96.363h-147.27v109.09c0 10.91-7.2734 18.184-18.184 18.184h-98.184c-10.91 0-18.184-7.2734-18.184-18.184v-109.09h-145.45c-10.91 0-18.184 7.2734-18.184 18.184v332.73c0 9.0898 7.2734 18.184 18.184 18.184h427.27c10.91 0 18.184-9.0898 18.184-18.184v-332.73c0-9.0938-7.2734-18.184-18.184-18.184z"/>
  <path d="m1101.8 509.09-38.184-7.2734c-1.8164-7.2734-5.4531-14.547-7.2734-21.816l23.637-36.363c5.4531-7.2734 3.6367-16.363-1.8164-23.637l-41.816-43.637c-5.4531-5.4531-16.363-7.2734-23.637-1.8164l-30.91 20c-7.2734-3.6367-14.547-7.2734-21.816-9.0898l-9.0898-43.637c-1.8164-9.0898-9.0898-14.547-18.184-14.547h-60c-9.0898 0-16.363 5.4531-18.184 14.547l-7.2734 38.184c-7.2734 1.8164-14.547 5.4531-21.816 7.2734l-36.363-23.637c-7.2734-5.4531-16.363-3.6367-23.637 1.8164l-43.637 43.637c-5.4531 5.4531-7.2734 16.363-1.8164 23.637l21.816 32.727c-3.6367 7.2734-7.2734 14.547-9.0898 21.816l-43.637 9.0898c-9.0898 1.8164-14.547 9.0898-14.547 18.184v60c0 9.0898 5.4531 16.363 14.547 18.184l38.184 7.2734c1.8164 7.2734 5.4531 14.547 7.2734 21.816l-23.637 36.363c-5.4531 7.2734-3.6367 16.363 1.8164 23.637l43.637 43.637c5.4531 5.4531 16.363 7.2734 23.637 1.8164l32.727-21.816c7.2734 3.6367 14.547 7.2734 21.816 10.91l9.0898 41.816c1.8164 9.0898 9.0898 14.547 18.184 14.547h60c9.0898 0 16.363-5.4531 18.184-14.547l7.2734-36.363c7.2734-1.8164 14.547-5.4531 21.816-9.0898l36.363 23.637c7.2734 5.4531 16.363 3.6367 23.637-1.8164l43.637-43.637c5.4531-5.4531 7.2734-16.363 1.8164-23.637l-21.816-30.91c3.6367-7.2734 7.2734-14.547 9.0898-21.816l43.637-9.0898c9.0898-1.8164 14.547-9.0898 14.547-18.184v-60c-3.6367-9.0938-9.0898-18.188-18.184-18.188zm-205.45 114.55c-43.637 0-80-36.363-80-80s36.363-80 80-80 80 36.363 80 80c-1.8164 45.453-36.363 80-80 80z"/>
 </g>
</svg>
