<?xml version="1.0" encoding="UTF-8"?>
<svg width="1200pt" height="1200pt" version="1.1" viewBox="0 0 1200 1200" xmlns="http://www.w3.org/2000/svg">
 <g>
  <path d="m1037.1 437.14c0.10156-95.949-31.371-189.27-89.559-265.56-58.188-76.293-139.86-131.32-232.42-156.6-92.559-25.277-190.86-19.402-279.75 16.723-88.887 36.129-163.42 100.5-212.11 183.18-48.684 82.684-68.812 179.08-57.281 274.34 11.531 95.254 54.082 184.07 121.09 252.74l-116.86 226.97 189.69 17.715 124.65 144.09 97.82-189.95 97.422 259.35 135.1-143.56 196.04 19.035-118.04-314.21c45.418-40.926 81.727-90.941 106.57-146.8 24.844-55.859 37.672-116.32 37.645-177.46zm-437.14-384.27c101.91 0 199.66 40.484 271.72 112.55 72.066 72.062 112.55 169.8 112.55 271.72 0 101.91-40.484 199.66-112.55 271.72-72.062 72.066-169.8 112.55-271.72 112.55s-199.66-40.484-271.72-112.55c-72.066-72.062-112.55-169.8-112.55-271.72 0.10547-101.88 40.625-199.56 112.66-271.61 72.043-72.039 169.72-112.56 271.61-112.66z"/>
  <path d="m600 798.02c95.711 0 187.5-38.02 255.18-105.7 67.676-67.676 105.7-159.46 105.7-255.18 0-95.711-38.02-187.5-105.7-255.18s-159.46-105.7-255.18-105.7-187.5 38.02-255.18 105.7-105.7 159.46-105.7 255.18c0 95.711 38.02 187.5 105.7 255.18 67.676 67.676 159.46 105.7 255.18 105.7zm-82.484-477.59 82.484-130.2 82.484 130.2 149.37 38.203-98.348 118.97 9.7812 153.87-143.29-56.84-143.29 56.84 10.184-154.13-98.348-118.97z"/>
 </g>
</svg>
