<?xml version="1.0" encoding="UTF-8"?>
<svg width="1200pt" height="1200pt" version="1.1" viewBox="0 0 1200 1200" xmlns="http://www.w3.org/2000/svg">
 <path d="m1108.3 705.25v263.12l-227.87 131.56v-263.12zm-490.79 263.12 227.87 131.56-0.003906-263.12-227.86-131.56zm-525.86 0 227.88 131.56v-263.12l-227.88-131.56zm508.32-868.29-222.61 128.52 222.61 128.52 222.61-128.51zm-245.39 999.84 227.87-131.56v-263.12l-227.87 131.56zm-17.535-556.6-227.88 131.56 227.88 131.56 227.87-131.56zm280.46 101.2 222.61-128.52v-257.04l-222.61 128.52zm-35.059-257.05-222.6-128.52v257.04l222.61 128.54-0.003907-257.06zm280.46 155.86-227.86 131.56 227.86 131.56 227.87-131.56z" fill-rule="evenodd"/>
</svg>
