<svg xmlns="http://www.w3.org/2000/svg" fill="none" viewBox="0 0 64 64">
<path class="circle" d="M64 32C64 49.6731 49.6731 64 32 64C14.3269 64 0 49.6731 0 32C0 14.3269 14.3269 0 32 0C49.6731 0 64 14.3269 64 32Z"/>
<path class="logo" d="M13.3144 14.9303L13.6936 14.4584L14.0868 14L17.064 14.0135C18.7071 14.0135 20.4484 14.0674 20.954 14.1213C21.4596 14.1888 22.4005 14.3371 23.0605 14.4584C23.7627 14.6067 24.8019 14.9438 25.5883 15.2943C26.3185 15.6314 27.3016 16.0898 27.765 16.319C28.2284 16.5482 28.7902 16.8718 29.0149 17.0201C29.2255 17.1819 29.8153 17.6672 30.3209 18.1122C30.8124 18.5571 31.3741 19.1368 31.5708 19.393C31.7533 19.6492 32.0623 20.0806 32.2589 20.3368C32.4555 20.5929 32.7644 21.0379 32.961 21.321C33.2981 21.8064 33.3262 21.8064 33.593 21.5906C33.7475 21.4558 33.902 21.2266 33.93 21.0783C33.9581 20.93 34.3373 19.4739 34.7726 17.8425C35.3625 15.6314 35.6433 14.7955 35.8821 14.5663C36.177 14.2697 36.2331 14.2562 37.1038 14.4045C37.6094 14.4854 38.4801 14.7011 39.0278 14.8764C39.5895 15.0651 40.2074 15.2134 40.404 15.2134C40.6006 15.2134 40.9938 15.3078 41.2747 15.4291C41.5696 15.537 42.4684 15.7932 43.2829 15.9684C44.0974 16.1572 45.3613 16.4538 46.0916 16.6156C46.8218 16.7774 47.5942 16.9931 47.8049 17.074C48.0295 17.1684 48.3104 17.2358 48.4368 17.2358C48.5772 17.2358 49.2654 17.3841 49.9535 17.5594C50.6416 17.7481 51.751 18.0313 52.4111 18.1931C53.0711 18.3548 53.9839 18.5571 54.4474 18.6649C54.9108 18.7593 55.5427 18.9346 55.8517 19.0425C56.1606 19.1503 56.8488 19.3121 57.3965 19.393C57.9441 19.4739 58.4216 19.5683 58.4778 19.6087C58.548 19.6357 58.7025 19.8379 58.8289 20.0536C59.0676 20.4446 59.0676 20.512 58.7587 21.8738C58.5901 22.6558 58.3935 23.4108 58.3233 23.5456C58.2531 23.6669 58.1548 24.1119 58.0986 24.5163C58.0424 24.9208 57.902 25.4736 57.7897 25.7298C57.6633 25.9859 57.4526 26.687 57.3122 27.2803C57.1718 27.8735 56.9471 28.669 56.8066 29.0599C56.6662 29.4509 56.4696 29.8419 56.3713 29.9363C56.2309 30.0846 56.0764 30.0846 55.5287 29.9363C55.1636 29.8284 54.2648 29.6127 53.5345 29.4509C52.8043 29.2757 52.074 29.0734 51.9195 28.9925C51.7651 28.9116 51.2033 28.7768 50.6556 28.6959C50.108 28.6015 49.4479 28.4397 49.1811 28.3319C48.9143 28.224 48.17 28.0488 47.524 27.9409C46.892 27.833 46.1618 27.6578 45.909 27.5364C45.6703 27.4151 45.1787 27.2803 44.8277 27.2398C44.3221 27.1859 44.1395 27.2263 43.9008 27.4286C43.7182 27.5904 43.5357 28.0757 43.3672 28.7633C43.2408 29.3566 43.0442 30.1116 42.9318 30.4486C42.8195 30.7857 42.6509 31.5138 42.5386 32.0665C42.4263 32.6193 42.2437 33.2665 42.1313 33.4822C42.005 33.7114 41.8645 34.2237 41.8224 34.6282C41.7662 35.0327 41.6258 35.5181 41.5275 35.7068C41.4292 35.8956 41.2185 36.5967 41.0641 37.2573C40.9096 37.9179 40.6708 38.8348 40.5585 39.2797C40.4321 39.7246 40.2074 40.4796 40.067 40.965C39.9125 41.4504 39.758 42.1514 39.7018 42.5155C39.6457 42.893 39.4912 43.4997 39.3508 43.8637C39.1963 44.2412 39.0137 44.9288 38.9295 45.4142C38.8312 45.8996 38.6767 46.5063 38.5643 46.7625C38.452 47.0186 38.2835 47.6253 38.1992 48.1107C38.115 48.5961 37.9605 49.1489 37.8622 49.3646C37.7498 49.5668 37.5392 49.8095 37.3987 49.9039C37.1881 50.0252 36.9353 50.0387 36.2331 49.9039C35.7416 49.8095 34.9412 49.6207 34.4356 49.4724C33.93 49.3376 33.1155 49.1084 32.61 48.9871C32.1044 48.8657 31.3741 48.7039 30.995 48.623C30.6018 48.5421 29.9417 48.3938 29.5204 48.286C29.0991 48.1781 28.4672 48.0298 28.1161 47.9354C27.765 47.8411 27.3999 47.7332 27.3016 47.6793C27.2173 47.6119 27.1331 47.3152 27.1331 47.0051C27.1331 46.6816 27.2875 45.967 27.4701 45.4142C27.6527 44.8614 27.8774 44.039 27.9476 43.5941C28.0318 43.1491 28.1301 42.6368 28.1863 42.4481C28.2706 42.1245 28.2425 42.111 27.7229 42.1784C27.4139 42.2189 27.0488 42.3402 26.9084 42.4615C26.7679 42.5829 26.4169 42.7312 26.15 42.7851C25.8832 42.839 25.4198 43.0008 25.1249 43.1357C24.844 43.284 23.9312 43.5536 23.1026 43.7424C22.246 43.9311 20.9399 44.1199 20.1114 44.1603C19.2969 44.2008 18.5526 44.3086 18.4543 44.3895C18.356 44.4704 18.2717 44.794 18.2858 45.1176C18.2858 45.4277 18.2155 45.8052 18.1453 45.9535C18.0049 46.2097 17.8645 46.2232 14.8171 46.2232C12.2612 46.2232 11.559 46.1827 11.3343 46.0344C11.0675 45.8456 11.0534 45.6569 11.0113 40.938C10.9832 38.2415 11.0113 35.9091 11.0534 35.7473C11.0956 35.572 11.2641 35.3563 11.4326 35.2754C11.6713 35.1405 13.1038 35.0866 16.6006 35.0327L16.6875 35.0314C21.3347 34.9653 21.4622 34.9635 21.8949 34.6687C22.1477 34.4934 22.4426 34.3586 22.5268 34.3586C22.6251 34.3586 22.9341 34.2372 23.2009 34.0754C23.4677 33.9271 23.9593 33.5092 24.2963 33.1721C24.6193 32.8216 24.8861 32.4845 24.8861 32.4036C24.8861 32.3227 25.0406 32.0531 25.2372 31.7969C25.4338 31.5138 25.6726 30.8666 25.813 30.179C26.0377 29.0869 26.0377 28.979 25.7989 27.887C25.6726 27.2533 25.3917 26.4713 25.181 26.1477C24.9844 25.8241 24.5912 25.3388 24.3244 25.0691C24.0716 24.7995 23.5661 24.3815 23.2009 24.1388C22.8498 23.9096 22.4847 23.7074 22.3864 23.7074C22.3022 23.7074 21.8387 23.5591 21.3753 23.3703C20.5608 23.0468 20.4344 23.0333 17.3449 23.0333C14.3817 23.0468 14.1149 23.0198 13.4408 22.5209L13.3144 14.9303Z" />
    <style>
        path.circle { fill: #fff; }
        path.logo { fill: #8D313E; }
        @media (prefers-color-scheme: dark) {
            path.circle { fill: #fff; }
            path.logo { fill: #8D313E; }
        }
    </style>
</svg>
