<svg xmlns="http://www.w3.org/2000/svg" fill="none" viewBox="0 0 128 128">
    <path d="M2.60436 1.53366L3.03104 1.00934L3.47351 0.5L6.82368 0.514981C8.6726 0.514981 10.6321 0.574903 11.201 0.634825C11.7699 0.709728 12.8287 0.874514 13.5714 1.00934C14.3616 1.17412 15.531 1.54864 16.4159 1.93813C17.2377 2.31265 18.3438 2.82198 18.8653 3.07665C19.3868 3.33132 20.0189 3.69086 20.2718 3.85564C20.5088 4.03541 21.1725 4.57471 21.7414 5.06907C22.2945 5.56342 22.9266 6.20759 23.1479 6.49222C23.3533 6.77685 23.701 7.25623 23.9222 7.54086C24.1434 7.82549 24.4911 8.31984 24.7123 8.63444C25.0916 9.17374 25.1232 9.17374 25.4234 8.93405C25.5973 8.78424 25.7711 8.52957 25.8027 8.36479C25.8343 8.2 26.261 6.5821 26.7509 4.76946C27.4146 2.31265 27.7306 1.38385 27.9993 1.12918C28.3311 0.799611 28.3944 0.78463 29.3741 0.949416C29.943 1.0393 30.9228 1.27899 31.5391 1.47374C32.1712 1.68346 32.8665 1.84825 33.0877 1.84825C33.309 1.84825 33.7515 1.95311 34.0675 2.08794C34.3994 2.20778 35.4107 2.49241 36.3273 2.68716C37.2439 2.89689 38.6661 3.22646 39.4878 3.40623C40.3096 3.58599 41.1787 3.82568 41.4158 3.91556C41.6686 4.02043 41.9847 4.09533 42.1269 4.09533C42.2849 4.09533 43.0592 4.26012 43.8336 4.45486C44.6079 4.66459 45.8563 4.97918 46.599 5.15895C47.3418 5.33872 48.3689 5.56342 48.8904 5.68327C49.4119 5.78813 50.123 5.98288 50.4707 6.10272C50.8184 6.22257 51.5927 6.40234 52.209 6.49222C52.8253 6.5821 53.3626 6.68697 53.4258 6.73191C53.5048 6.76187 53.6787 6.98658 53.8209 7.22626C54.0895 7.6607 54.0895 7.7356 53.7419 9.24864C53.5522 10.1175 53.331 10.9564 53.252 11.1062C53.173 11.2411 53.0623 11.7354 52.9991 12.1848C52.9359 12.6342 52.7779 13.2484 52.6515 13.5331C52.5093 13.8177 52.2722 14.5967 52.1142 15.2558C51.9562 15.915 51.7033 16.7988 51.5453 17.2333C51.3873 17.6677 51.166 18.1021 51.0554 18.207C50.8974 18.3718 50.7236 18.3718 50.1072 18.207C49.6964 18.0872 48.685 17.8475 47.8633 17.6677C47.0415 17.473 46.2198 17.2482 46.0459 17.1584C45.8721 17.0685 45.24 16.9187 44.6237 16.8288C44.0074 16.7239 43.2647 16.5442 42.9644 16.4243C42.6642 16.3045 41.8266 16.1097 41.0997 15.9899C40.3886 15.87 39.5669 15.6753 39.2824 15.5405C39.0138 15.4056 38.4607 15.2558 38.0656 15.2109C37.4967 15.151 37.2913 15.1959 37.0226 15.4206C36.8172 15.6004 36.6117 16.1397 36.4221 16.9037C36.2799 17.5628 36.0587 18.4018 35.9322 18.7763C35.8058 19.1508 35.6162 19.9597 35.4898 20.5739C35.3633 21.1881 35.1579 21.9072 35.0315 22.1469C34.8893 22.4016 34.7312 22.9708 34.6838 23.4202C34.6206 23.8697 34.4626 24.409 34.352 24.6187C34.2413 24.8284 34.0043 25.6074 33.8305 26.3414C33.6567 27.0755 33.388 28.0942 33.2616 28.5885C33.1194 29.0829 32.8665 29.9218 32.7085 30.4611C32.5347 31.0004 32.3608 31.7794 32.2976 32.1839C32.2344 32.6033 32.0606 33.2774 31.9025 33.6819C31.7287 34.1014 31.5233 34.8654 31.4285 35.4047C31.3179 35.944 31.144 36.6181 31.0176 36.9027C30.8912 37.1874 30.7015 37.8615 30.6067 38.4008C30.5119 38.9401 30.3381 39.5543 30.2275 39.794C30.101 40.0187 29.864 40.2883 29.706 40.3932C29.4689 40.528 29.1845 40.543 28.3944 40.3932C27.8413 40.2883 26.9405 40.0786 26.3716 39.9138C25.8027 39.764 24.8862 39.5093 24.3173 39.3745C23.7484 39.2397 22.9266 39.0599 22.4999 38.97C22.0575 38.8802 21.3147 38.7154 20.8407 38.5955C20.3666 38.4757 19.6555 38.3109 19.2604 38.206C18.8653 38.1012 18.4545 37.9813 18.3438 37.9214C18.249 37.8465 18.1542 37.5169 18.1542 37.1724C18.1542 36.8128 18.328 36.0189 18.5335 35.4047C18.7389 34.7905 18.9918 33.8767 19.0708 33.3823C19.1656 32.8879 19.2762 32.3187 19.3394 32.109C19.4342 31.7494 19.4026 31.7344 18.8179 31.8093C18.4703 31.8543 18.0594 31.9891 17.9014 32.1239C17.7433 32.2588 17.3483 32.4235 17.048 32.4835C16.7478 32.5434 16.2263 32.7232 15.8944 32.873C15.5784 33.0378 14.5512 33.3374 13.6188 33.5471C12.6549 33.7568 11.1852 33.9665 10.2529 34.0115C9.33631 34.0564 8.49877 34.1763 8.38815 34.2662C8.27753 34.356 8.18271 34.7156 8.19851 35.0751C8.19851 35.4197 8.1195 35.8391 8.04049 36.0039C7.88246 36.2885 7.72443 36.3035 4.29525 36.3035C1.41916 36.3035 0.629027 36.2586 0.376184 36.0938C0.0759329 35.8841 0.0601302 35.6743 0.0127221 30.4311C-0.0188832 27.435 0.0127221 24.8434 0.0601302 24.6636C0.107538 24.4689 0.297171 24.2292 0.486803 24.1393C0.755448 23.9895 2.36732 23.9296 6.30219 23.8697L6.40002 23.8683C11.6295 23.7947 11.7729 23.7927 12.2598 23.4652C12.5443 23.2704 12.8761 23.1206 12.9709 23.1206C13.0815 23.1206 13.4292 22.9858 13.7295 22.806C14.0297 22.6412 14.5828 22.1768 14.9621 21.8023C15.3255 21.4128 15.6258 21.0383 15.6258 20.9484C15.6258 20.8586 15.7996 20.559 16.0208 20.2743C16.2421 19.9597 16.5107 19.2407 16.6688 18.4767C16.9216 17.2632 16.9216 17.1434 16.653 15.93C16.5107 15.2259 16.1947 14.357 15.9576 13.9975C15.7364 13.6379 15.2939 13.0986 14.9937 12.799C14.7092 12.4994 14.1403 12.035 13.7295 11.7654C13.3344 11.5107 12.9235 11.286 12.8129 11.286C12.7181 11.286 12.1966 11.1212 11.6751 10.9115C10.7586 10.5519 10.6163 10.537 7.13974 10.537C3.80537 10.5519 3.50512 10.522 2.74659 9.96771L2.60436 1.53366Z"/>
    <style>
        path { fill: #8D313E; }
        @media (prefers-color-scheme: dark) {
            path { fill: #8D313E; }
        }
    </style>
</svg>
